<?xml version="1.0" encoding="utf-8"?>
<!-- Svg Vector Icons : http://www.onlinewebfonts.com/icon -->
<!DOCTYPE svg PUBLIC "-//W3C//DTD SVG 1.1//EN" "http://www.w3.org/Graphics/SVG/1.1/DTD/svg11.dtd">
<svg version="1.1" xmlns="http://www.w3.org/2000/svg" width="15" height="15" xmlns:xlink="http://www.w3.org/1999/xlink" x="0px" y="0px" viewBox="0 0 256 256" enable-background="new 0 0 256 256" xml:space="preserve">
<metadata> Svg Vector Icons : http://www.onlinewebfonts.com/icon </metadata>
<g><g><g><path fill="#FFFFFF" d="M238,83c2.9,0,5,1,6.5,3.1c1.4,2.1,1.9,4.8,1.3,8.2L221,184.1c-2.3,9.5-7.6,17.5-15.8,24c-8.2,6.5-17.1,9.7-26.8,9.7H43.7c-9.5,0-17.5-3.2-24-9.7c-6.5-6.5-9.7-14.4-9.7-24V72c0-9.5,3.2-17.5,9.7-24c6.5-6.5,14.5-9.7,24-9.7h46.1c6.1,0,11.4,2.2,15.8,6.6s6.6,9.7,6.6,15.8h67.4c7.2,0,13.7,2,19.4,6.1c5.8,4,9.8,9.5,12.1,16.3H238z M32.4,72v104.3l18.1-70.6c1.1-3.4,2.9-6.1,5.5-8.2c2.6-2.1,5.6-3.1,9-3.1h124.8c0-3.4-1-6.1-3.1-8.2c-2.1-2.1-4.8-3.1-8.2-3.1H111c-6.3,0-11.6-2.2-15.9-6.6c-4.3-4.4-6.5-9.7-6.5-15.8h-45c-3.4,0-6.1,1-8.2,3.1C33.4,65.8,32.4,68.6,32.4,72z M199.7,178.7l20.2-73H66c-0.5,0-1.2,0.2-2,0.7c-0.8,0.5-1.2,0.9-1.2,1.5l-21.3,78.7c-0.5,2.2-0.7,3.9-0.4,5.3s0.8,2.3,1.5,2.8l1.1,0.8h134.7c4.5,0,8.9-1.7,13.2-5S198.6,183.2,199.7,178.7z"/></g></g></g>
</svg>
